;TYPE=PLATED
;Layer: PTH_Through
;EasyEDA Pro v2.2.38.8, 2025-04-29 09:25:40
;Gerber Generator version 0.3
M48
METRIC,LZ,0000.00000
;Hole size 1 = 0.30480 METRIC
T01C0.30480
;Hole size 2 = 0.70002 METRIC
T02C0.70002
;Hole size 3 = 0.80000 METRIC
T03C0.80000
;Hole size 4 = 0.91440 METRIC
T04C0.91440
;Hole size 5 = 1.00000 METRIC
T05C1.00000
;Hole size 6 = 1.20000 METRIC
T06C1.20000
;Hole size 7 = 1.50002 METRIC
T07C1.50002
;Hole size 8 = 1.60000 METRIC
T08C1.60000
;Hole size 9 = 1.70002 METRIC
T09C1.70002
;Hole size 10 = 1.80000 METRIC
T10C1.80000
%
G05
G90
T01
X35.4584Y-27.60447
X55.372Y-31.442
X55.372Y-39.2652
T02
X45.89896Y-38.6079G85X46.04894Y-38.6079
X45.89896Y-37.3379G85X46.04894Y-37.3379
X45.89896Y-36.0679G85X46.04894Y-36.0679
X55.372Y-33.612
X55.372Y-44.112
X40.978Y-43.942
X51.478Y-43.942
T03
X35.814Y-43.96179
X35.814Y-33.76221
T04
X55.64886Y-22.6028G85X55.60314Y-22.6028
X55.64886Y-25.1428G85X55.60314Y-25.1428
X55.64886Y-27.6828G85X55.60314Y-27.6828
X48.02886Y-27.6828G85X47.98314Y-27.6828
X48.02886Y-25.1428G85X47.98314Y-25.1428
X48.02886Y-22.6028G85X47.98314Y-22.6028
X2.59334Y-29.02331
X2.59334Y-26.48331
X2.59334Y-23.94331
X2.59334Y-21.40331
X97.1549Y-26.9241
X99.6949Y-26.9241
X102.2349Y-26.9241
X104.7749Y-26.9241
X107.315Y-26.924
X107.3149Y-42.1641
X104.7749Y-42.1641
X102.235Y-42.1641
X99.6949Y-42.1641
X94.6149Y-42.1641
X92.0749Y-42.1641
X97.1549Y-42.1641
X100.7109Y-30.66806
X102.59888Y-30.66806
X92.0749Y-26.9241
X94.6149Y-26.9241
T05
X36.068Y-21.34601
X36.068Y-28.94599
T06
X4.33807Y-47.46188
X4.33807Y-42.96186
X4.08407Y-7.58388
X4.08407Y-3.08386
T07
X6.83806Y-41.71188
X6.83806Y-48.71187
X6.58406Y-1.83388
X6.58406Y-8.83387
T08
X94.44192Y-2.50193
X107.74192Y-2.50185
T09
X96.29188Y-11.72195
X101.09187Y-11.72195
X105.89189Y-11.72195
T10
X87.49226Y-9.14451
X79.89293Y-6.64421
X79.89189Y-11.64425
X24.26774Y-9.14349
X31.86707Y-11.64379
X31.86811Y-6.64375
M30