G04 Layer: BottomLayer*
G04 EasyEDA Pro v2.2.38.8, 2025-04-29 09:25:40*
G04 Gerber Generator version 0.3*
G04 Scale: 100 percent, Rotated: No, Reflected: No*
G04 Dimensions in millimeters*
G04 Leading zeros omitted, absolute positions, 4 integers and 5 decimals*
%FSLAX45Y45*%
%MOMM*%
%ADD10O,2.54X2.0*%
%ADD11R,1.524X1.524*%
%ADD12C,1.524*%
%ADD13C,1.8*%
%ADD14R,1.2X1.0*%
%ADD15O,1.2X1.0*%
%ADD16C,1.4*%
%ADD17C,2.49999*%
%ADD18C,2.79999*%
%ADD19C,2.2*%
%ADD20C,0.6096*%
%ADD21C,0.3556*%
G75*


G04 Pad Start*
G54D10*
G01X5562600Y-2260280D03*
G01X5562600Y-2514280D03*
G01X5562600Y-2768280D03*
G01X4800600Y-2768280D03*
G01X4800600Y-2514280D03*
G01X4800600Y-2260280D03*
G54D11*
G01X259334Y-2902331D03*
G54D12*
G01X259334Y-2648331D03*
G01X259334Y-2394331D03*
G01X259334Y-2140331D03*
G01X9715490Y-2692410D03*
G01X9969490Y-2692410D03*
G01X10223490Y-2692410D03*
G01X10477490Y-2692410D03*
G01X10731500Y-2692400D03*
G01X10731490Y-4216410D03*
G01X10477490Y-4216410D03*
G01X10223500Y-4216410D03*
G01X9969490Y-4216410D03*
G01X9461490Y-4216410D03*
G01X9207490Y-4216410D03*
G01X9715490Y-4216410D03*
G01X10071090Y-3066806D03*
G01X10259888Y-3066806D03*
G01X9207490Y-2692410D03*
G01X9461490Y-2692410D03*
G54D13*
G01X3606800Y-2134603D03*
G01X3606800Y-2894597D03*
G54D14*
G01X4597400Y-3860800D03*
G54D15*
G01X4597400Y-3733800D03*
G01X4597400Y-3606800D03*
G54D16*
G01X5537200Y-3361207D03*
G01X5537200Y-4411193D03*
G01X4097807Y-4394200D03*
G01X5147793Y-4394200D03*
G01X3581400Y-4396207D03*
G01X3581400Y-3376193D03*
G54D17*
G01X9629188Y-1172195D03*
G01X10109197Y-1172195D03*
G01X10589181Y-1172195D03*
G01X9444203Y-250213D03*
G01X10774197Y-250205D03*
G54D18*
G01X8749309Y-914425D03*
G01X7989392Y-664388D03*
G01X7989291Y-1164412D03*
G01X2426691Y-914375D03*
G01X3186608Y-1164412D03*
G01X3186709Y-664388D03*
G54D19*
G01X683793Y-4171201D03*
G01X683793Y-4871199D03*
G54D13*
G01X433807Y-4746180D03*
G01X433807Y-4296194D03*
G54D19*
G01X658393Y-183401D03*
G01X658393Y-883399D03*
G54D13*
G01X408407Y-758380D03*
G01X408407Y-308394D03*
G04 Pad End*

G04 Via Start*
G54D20*
G01X3545840Y-2760447D03*
G01X5537200Y-3144200D03*
G01X5537200Y-3926520D03*
G04 Via End*

G04 Track Start*
G54D21*
G01X259334Y-2394331D02*
G01X543814Y-2678811D01*
G01X4490974Y-2678811D01*
G01X4717933Y-2905770D01*
G01X8807333Y-2905770D01*
G01X9162933Y-2550170D01*
G01X9319250Y-2550170D01*
G01X9461490Y-2692410D01*
G01X259334Y-2140331D02*
G01X470167Y-2351164D01*
G01X4493501Y-2351164D01*
G01X4739894Y-2104771D01*
G01X9127851Y-2104771D01*
G01X9715490Y-2692410D01*
G01X3606800Y-2894597D02*
G01X3606800Y-3350793D01*
G01X3581400Y-3376193D01*
G01X4366793Y-3376193D01*
G01X4597400Y-3606800D01*
G01X5291607Y-3606800D01*
G01X5537200Y-3361207D01*
G01X2426691Y-914375D02*
G01X2936570Y-914375D01*
G01X3186608Y-1164412D01*
G01X3186608Y-664489D01*
G01X3186608Y-1164412D02*
G01X3862248Y-488772D01*
G01X9425775Y-488772D01*
G01X10109197Y-1172195D01*
G01X10259888Y-3066806D02*
G01X10589181Y-2737513D01*
G01X10589181Y-1172195D01*
G01X10071090Y-3066806D02*
G01X9857730Y-2853446D01*
G01X9857730Y-2320046D01*
G01X8755370Y-1217686D01*
G01X8755370Y-920486D02*
G01X8749309Y-914425D01*
G01X8755370Y-1146566D02*
G01X8008610Y-1146566D01*
G01X7989291Y-1164412D01*
G01X8008610Y-1146566D02*
G01X8008610Y-683605D01*
G01X7989392Y-664388D01*
G01X10731500Y-2692400D02*
G01X10731500Y-2763520D01*
G01X9415780Y-4079240D01*
G01X4579620Y-4079240D01*
G01X4152900Y-4505960D01*
G01X643573Y-4505960D01*
G01X433807Y-4296194D01*
G01X9207490Y-2692410D02*
G01X7891770Y-4008130D01*
G01X4483877Y-4008130D01*
G01X4097807Y-4394200D01*
G01X3583407Y-4394200D01*
G01X3581400Y-4396207D01*
G01X3474720Y-4289527D01*
G01X3474720Y-2831567D01*
G01X3545840Y-2760447D01*
G01X5562600Y-2260280D02*
G01X4800600Y-2260280D01*
G01X5537200Y-3144200D02*
G01X5643880Y-3250880D01*
G01X5643880Y-3819840D01*
G01X5537200Y-3926520D01*
G01X8755370Y-1217686D02*
G01X8755370Y-1146566D01*
G01X8755370Y-920486D01*
G04 Track End*

M02*

