G04 Layer: TopSilkscreenLayer*
G04 EasyEDA Pro v2.2.38.8, 2025-04-29 09:25:40*
G04 Gerber Generator version 0.3*
G04 Scale: 100 percent, Rotated: No, Reflected: No*
G04 Dimensions in millimeters*
G04 Leading zeros omitted, absolute positions, 4 integers and 5 decimals*
%FSLAX45Y45*%
%MOMM*%
%ADD10C,0.1524*%
%ADD11C,0.2032*%
%ADD12C,0.08534*%
%ADD13C,0.12192*%
%ADD14C,0.15001*%
%ADD15C,0.2557*%
%ADD16C,0.254*%
%ADD17C,0.127*%
%ADD18C,0.15199*%
G75*


G04 Text Start*
G54D10*
G01X4541605Y-1760021D02*
G01X4541605Y-1825045D01*
G01X4541605Y-1760021D02*
G01X4566497Y-1825045D01*
G01X4591135Y-1760021D02*
G01X4566497Y-1825045D01*
G01X4591135Y-1760021D02*
G01X4591135Y-1825045D01*
G01X4621361Y-1772467D02*
G01X4627457Y-1769165D01*
G01X4636601Y-1760021D01*
G01X4636601Y-1825045D01*
G54D11*
G01X396616Y-2732659D02*
G01X435986Y-2717673D01*
G01X396616Y-2702941D02*
G01X435986Y-2717673D01*
G01X406014Y-2645791D02*
G01X402204Y-2647569D01*
G01X398648Y-2651379D01*
G01X396616Y-2654935D01*
G01X396616Y-2662555D01*
G01X398648Y-2666111D01*
G01X402204Y-2669921D01*
G01X406014Y-2671699D01*
G01X411602Y-2673731D01*
G01X421000Y-2673731D01*
G01X426588Y-2671699D01*
G01X430398Y-2669921D01*
G01X433954Y-2666111D01*
G01X435986Y-2662555D01*
G01X435986Y-2654935D01*
G01X433954Y-2651379D01*
G01X430398Y-2647569D01*
G01X426588Y-2645791D01*
G01X406014Y-2588641D02*
G01X402204Y-2590419D01*
G01X398648Y-2594229D01*
G01X396616Y-2597785D01*
G01X396616Y-2605405D01*
G01X398648Y-2608961D01*
G01X402204Y-2612771D01*
G01X406014Y-2614549D01*
G01X411602Y-2616581D01*
G01X421000Y-2616581D01*
G01X426588Y-2614549D01*
G01X430398Y-2612771D01*
G01X433954Y-2608961D01*
G01X435986Y-2605405D01*
G01X435986Y-2597785D01*
G01X433954Y-2594229D01*
G01X430398Y-2590419D01*
G01X426588Y-2588641D01*
G01X406268Y-3004947D02*
G01X402458Y-3006725D01*
G01X398902Y-3010535D01*
G01X396870Y-3014345D01*
G01X396870Y-3021711D01*
G01X398902Y-3025521D01*
G01X402458Y-3029077D01*
G01X406268Y-3031109D01*
G01X411856Y-3032887D01*
G01X421254Y-3032887D01*
G01X426842Y-3031109D01*
G01X430652Y-3029077D01*
G01X434208Y-3025521D01*
G01X436240Y-3021711D01*
G01X436240Y-3014345D01*
G01X434208Y-3010535D01*
G01X430652Y-3006725D01*
G01X426842Y-3004947D01*
G01X421254Y-3004947D01*
G01X421254Y-3014345D02*
G01X421254Y-3004947D01*
G01X396870Y-2975737D02*
G01X436240Y-2975737D01*
G01X396870Y-2975737D02*
G01X436240Y-2949575D01*
G01X396870Y-2949575D02*
G01X436240Y-2949575D01*
G01X396870Y-2920365D02*
G01X436240Y-2920365D01*
G01X396870Y-2920365D02*
G01X396870Y-2907157D01*
G01X398902Y-2901569D01*
G01X402458Y-2898013D01*
G01X406268Y-2895981D01*
G01X411856Y-2894203D01*
G01X421254Y-2894203D01*
G01X426842Y-2895981D01*
G01X430652Y-2898013D01*
G01X434208Y-2901569D01*
G01X436240Y-2907157D01*
G01X436240Y-2920365D01*
G01X400172Y-2441575D02*
G01X396616Y-2445385D01*
G01X394584Y-2450973D01*
G01X394584Y-2458339D01*
G01X396616Y-2463927D01*
G01X400172Y-2467737D01*
G01X403982Y-2467737D01*
G01X407792Y-2465959D01*
G01X409570Y-2463927D01*
G01X411348Y-2460371D01*
G01X415158Y-2449195D01*
G01X417190Y-2445385D01*
G01X418968Y-2443607D01*
G01X422778Y-2441575D01*
G01X428366Y-2441575D01*
G01X431922Y-2445385D01*
G01X433954Y-2450973D01*
G01X433954Y-2458339D01*
G01X431922Y-2463927D01*
G01X428366Y-2467737D01*
G01X403982Y-2384425D02*
G01X400172Y-2386203D01*
G01X396616Y-2390013D01*
G01X394584Y-2393569D01*
G01X394584Y-2401189D01*
G01X396616Y-2404745D01*
G01X400172Y-2408555D01*
G01X403982Y-2410333D01*
G01X409570Y-2412365D01*
G01X418968Y-2412365D01*
G01X424556Y-2410333D01*
G01X428366Y-2408555D01*
G01X431922Y-2404745D01*
G01X433954Y-2401189D01*
G01X433954Y-2393569D01*
G01X431922Y-2390013D01*
G01X428366Y-2386203D01*
G01X424556Y-2384425D01*
G01X394584Y-2355215D02*
G01X433954Y-2355215D01*
G01X433954Y-2355215D02*
G01X433954Y-2332863D01*
G01X401188Y-2206625D02*
G01X397632Y-2210435D01*
G01X395600Y-2216023D01*
G01X395600Y-2223389D01*
G01X397632Y-2228977D01*
G01X401188Y-2232787D01*
G01X404998Y-2232787D01*
G01X408808Y-2231009D01*
G01X410586Y-2228977D01*
G01X412364Y-2225421D01*
G01X416174Y-2214245D01*
G01X418206Y-2210435D01*
G01X419984Y-2208657D01*
G01X423794Y-2206625D01*
G01X429382Y-2206625D01*
G01X432938Y-2210435D01*
G01X434970Y-2216023D01*
G01X434970Y-2223389D01*
G01X432938Y-2228977D01*
G01X429382Y-2232787D01*
G01X395600Y-2177415D02*
G01X434970Y-2177415D01*
G01X395600Y-2177415D02*
G01X395600Y-2164207D01*
G01X397632Y-2158619D01*
G01X401188Y-2155063D01*
G01X404998Y-2153031D01*
G01X410586Y-2151253D01*
G01X419984Y-2151253D01*
G01X425572Y-2153031D01*
G01X429382Y-2155063D01*
G01X432938Y-2158619D01*
G01X434970Y-2164207D01*
G01X434970Y-2177415D01*
G01X395600Y-2107057D02*
G01X434970Y-2122043D01*
G01X395600Y-2107057D02*
G01X434970Y-2092071D01*
G01X421762Y-2116455D02*
G01X421762Y-2097659D01*
G01X1379972Y-3371469D02*
G01X1371336Y-3380359D01*
G01X1367018Y-3393313D01*
G01X1367018Y-3410839D01*
G01X1371336Y-3424047D01*
G01X1379972Y-3432683D01*
G01X1388862Y-3432683D01*
G01X1397498Y-3428365D01*
G01X1401816Y-3424047D01*
G01X1406134Y-3415157D01*
G01X1415024Y-3388995D01*
G01X1419342Y-3380359D01*
G01X1423660Y-3376041D01*
G01X1432550Y-3371469D01*
G01X1445504Y-3371469D01*
G01X1454394Y-3380359D01*
G01X1458712Y-3393313D01*
G01X1458712Y-3410839D01*
G01X1454394Y-3424047D01*
G01X1445504Y-3432683D01*
G01X1379972Y-3269107D02*
G01X1371336Y-3277743D01*
G01X1367018Y-3290951D01*
G01X1367018Y-3308477D01*
G01X1371336Y-3321431D01*
G01X1379972Y-3330321D01*
G01X1388862Y-3330321D01*
G01X1397498Y-3325749D01*
G01X1401816Y-3321431D01*
G01X1406134Y-3312795D01*
G01X1415024Y-3286633D01*
G01X1419342Y-3277743D01*
G01X1423660Y-3273425D01*
G01X1432550Y-3269107D01*
G01X1445504Y-3269107D01*
G01X1454394Y-3277743D01*
G01X1458712Y-3290951D01*
G01X1458712Y-3308477D01*
G01X1454394Y-3321431D01*
G01X1445504Y-3330321D01*
G01X1367018Y-3227959D02*
G01X1458712Y-3227959D01*
G01X1367018Y-3227959D02*
G01X1367018Y-3197225D01*
G01X1371336Y-3184271D01*
G01X1379972Y-3175381D01*
G01X1388862Y-3171063D01*
G01X1401816Y-3166745D01*
G01X1423660Y-3166745D01*
G01X1436868Y-3171063D01*
G01X1445504Y-3175381D01*
G01X1454394Y-3184271D01*
G01X1458712Y-3197225D01*
G01X1458712Y-3227959D01*
G01X1384544Y-3125597D02*
G01X1379972Y-3116707D01*
G01X1367018Y-3103753D01*
G01X1458712Y-3103753D01*
G01X1367018Y-3053715D02*
G01X1367018Y-3005709D01*
G01X1401816Y-3031871D01*
G01X1401816Y-3018917D01*
G01X1406134Y-3010027D01*
G01X1410706Y-3005709D01*
G01X1423660Y-3001391D01*
G01X1432550Y-3001391D01*
G01X1445504Y-3005709D01*
G01X1454394Y-3014345D01*
G01X1458712Y-3027553D01*
G01X1458712Y-3040761D01*
G01X1454394Y-3053715D01*
G01X1449822Y-3058033D01*
G01X1441186Y-3062605D01*
G01X1367018Y-2933827D02*
G01X1371336Y-2947035D01*
G01X1384544Y-2955671D01*
G01X1406134Y-2960243D01*
G01X1419342Y-2960243D01*
G01X1441186Y-2955671D01*
G01X1454394Y-2947035D01*
G01X1458712Y-2933827D01*
G01X1458712Y-2925191D01*
G01X1454394Y-2911983D01*
G01X1441186Y-2903347D01*
G01X1419342Y-2899029D01*
G01X1406134Y-2899029D01*
G01X1384544Y-2903347D01*
G01X1371336Y-2911983D01*
G01X1367018Y-2925191D01*
G01X1367018Y-2933827D01*
G01X1379972Y-2805303D02*
G01X1371336Y-2809621D01*
G01X1367018Y-2822829D01*
G01X1367018Y-2831465D01*
G01X1371336Y-2844673D01*
G01X1384544Y-2853309D01*
G01X1406134Y-2857881D01*
G01X1427978Y-2857881D01*
G01X1445504Y-2853309D01*
G01X1454394Y-2844673D01*
G01X1458712Y-2831465D01*
G01X1458712Y-2827147D01*
G01X1454394Y-2814193D01*
G01X1445504Y-2805303D01*
G01X1432550Y-2800985D01*
G01X1427978Y-2800985D01*
G01X1415024Y-2805303D01*
G01X1406134Y-2814193D01*
G01X1401816Y-2827147D01*
G01X1401816Y-2831465D01*
G01X1406134Y-2844673D01*
G01X1415024Y-2853309D01*
G01X1427978Y-2857881D01*
G01X1384544Y-2662047D02*
G01X1379972Y-2653157D01*
G01X1367018Y-2640203D01*
G01X1458712Y-2640203D01*
G01X1388862Y-2594483D02*
G01X1384544Y-2594483D01*
G01X1375654Y-2590165D01*
G01X1371336Y-2585847D01*
G01X1367018Y-2577211D01*
G01X1367018Y-2559685D01*
G01X1371336Y-2550795D01*
G01X1375654Y-2546477D01*
G01X1384544Y-2542159D01*
G01X1393180Y-2542159D01*
G01X1401816Y-2546477D01*
G01X1415024Y-2555367D01*
G01X1458712Y-2599055D01*
G01X1458712Y-2537841D01*
G01X1367018Y-2474849D02*
G01X1371336Y-2487803D01*
G01X1379972Y-2492121D01*
G01X1388862Y-2492121D01*
G01X1397498Y-2487803D01*
G01X1401816Y-2479167D01*
G01X1406134Y-2461641D01*
G01X1410706Y-2448433D01*
G01X1419342Y-2439797D01*
G01X1427978Y-2435479D01*
G01X1441186Y-2435479D01*
G01X1449822Y-2439797D01*
G01X1454394Y-2444115D01*
G01X1458712Y-2457323D01*
G01X1458712Y-2474849D01*
G01X1454394Y-2487803D01*
G01X1449822Y-2492121D01*
G01X1441186Y-2496693D01*
G01X1427978Y-2496693D01*
G01X1419342Y-2492121D01*
G01X1410706Y-2483485D01*
G01X1406134Y-2470277D01*
G01X1401816Y-2453005D01*
G01X1397498Y-2444115D01*
G01X1388862Y-2439797D01*
G01X1379972Y-2439797D01*
G01X1371336Y-2444115D01*
G01X1367018Y-2457323D01*
G01X1367018Y-2474849D01*
G01X1397498Y-2394331D02*
G01X1458712Y-2346071D01*
G01X1397498Y-2346071D02*
G01X1458712Y-2394331D01*
G01X1379972Y-2252345D02*
G01X1371336Y-2256663D01*
G01X1367018Y-2269871D01*
G01X1367018Y-2278507D01*
G01X1371336Y-2291715D01*
G01X1384544Y-2300351D01*
G01X1406134Y-2304923D01*
G01X1427978Y-2304923D01*
G01X1445504Y-2300351D01*
G01X1454394Y-2291715D01*
G01X1458712Y-2278507D01*
G01X1458712Y-2274189D01*
G01X1454394Y-2261235D01*
G01X1445504Y-2252345D01*
G01X1432550Y-2248027D01*
G01X1427978Y-2248027D01*
G01X1415024Y-2252345D01*
G01X1406134Y-2261235D01*
G01X1401816Y-2274189D01*
G01X1401816Y-2278507D01*
G01X1406134Y-2291715D01*
G01X1415024Y-2300351D01*
G01X1427978Y-2304923D01*
G01X1367018Y-2163191D02*
G01X1427978Y-2206879D01*
G01X1427978Y-2141347D01*
G01X1367018Y-2163191D02*
G01X1458712Y-2163191D01*
G54D10*
G01X-30988Y-3898265D02*
G01X34036Y-3898265D01*
G01X-30988Y-3898265D02*
G01X-30988Y-3870325D01*
G01X-27940Y-3861181D01*
G01X-24892Y-3858133D01*
G01X-18542Y-3854831D01*
G01X-9398Y-3854831D01*
G01X-3302Y-3858133D01*
G01X0Y-3861181D01*
G01X3048Y-3870325D01*
G01X3048Y-3898265D01*
G01X-15494Y-3778377D02*
G01X-21844Y-3781425D01*
G01X-27940Y-3787521D01*
G01X-30988Y-3793871D01*
G01X-30988Y-3806063D01*
G01X-27940Y-3812413D01*
G01X-21844Y-3818509D01*
G01X-15494Y-3821557D01*
G01X-6350Y-3824605D01*
G01X9144Y-3824605D01*
G01X18542Y-3821557D01*
G01X24638Y-3818509D01*
G01X30988Y-3812413D01*
G01X34036Y-3806063D01*
G01X34036Y-3793871D01*
G01X30988Y-3787521D01*
G01X24638Y-3781425D01*
G01X18542Y-3778377D01*
G01X-30988Y-3748151D02*
G01X34036Y-3748151D01*
G01X-30988Y-3748151D02*
G01X-30988Y-3720465D01*
G01X-27940Y-3711067D01*
G01X-24892Y-3708019D01*
G01X-18542Y-3704971D01*
G01X-12446Y-3704971D01*
G01X-6350Y-3708019D01*
G01X-3302Y-3711067D01*
G01X0Y-3720465D01*
G01X0Y-3748151D02*
G01X0Y-3720465D01*
G01X3048Y-3711067D01*
G01X6096Y-3708019D01*
G01X12192Y-3704971D01*
G01X21590Y-3704971D01*
G01X27686Y-3708019D01*
G01X30988Y-3711067D01*
G01X34036Y-3720465D01*
G01X34036Y-3748151D01*
G01X-18542Y-3674745D02*
G01X-21844Y-3668649D01*
G01X-30988Y-3659505D01*
G01X34036Y-3659505D01*
G54D12*
G01X10576369Y-4041775D02*
G01X10579417Y-4047871D01*
G01X10585513Y-4053967D01*
G01X10591609Y-4057015D01*
G01X10603547Y-4057015D01*
G01X10609643Y-4053967D01*
G01X10615485Y-4047871D01*
G01X10618533Y-4041775D01*
G01X10621581Y-4032885D01*
G01X10621581Y-4017899D01*
G01X10618533Y-4008755D01*
G01X10615485Y-4002659D01*
G01X10609643Y-3996817D01*
G01X10603547Y-3993769D01*
G01X10591609Y-3993769D01*
G01X10585513Y-3996817D01*
G01X10579417Y-4002659D01*
G01X10576369Y-4008755D01*
G01X10576369Y-4017899D01*
G01X10591609Y-4017899D02*
G01X10576369Y-4017899D01*
G01X10553509Y-4057015D02*
G01X10553509Y-3993769D01*
G01X10553509Y-4057015D02*
G01X10511345Y-3993769D01*
G01X10511345Y-4057015D02*
G01X10511345Y-3993769D01*
G01X10488485Y-4057015D02*
G01X10488485Y-3993769D01*
G01X10488485Y-4057015D02*
G01X10467403Y-4057015D01*
G01X10458259Y-4053967D01*
G01X10452163Y-4047871D01*
G01X10449115Y-4041775D01*
G01X10446321Y-4032885D01*
G01X10446321Y-4017899D01*
G01X10449115Y-4008755D01*
G01X10452163Y-4002659D01*
G01X10458259Y-3996817D01*
G01X10467403Y-3993769D01*
G01X10488485Y-3993769D01*
G01X10790884Y-4057015D02*
G01X10820856Y-4057015D01*
G01X10823904Y-4029837D01*
G01X10820856Y-4032885D01*
G01X10811966Y-4035933D01*
G01X10802822Y-4035933D01*
G01X10793932Y-4032885D01*
G01X10787836Y-4026789D01*
G01X10784788Y-4017899D01*
G01X10784788Y-4011803D01*
G01X10787836Y-4002659D01*
G01X10793932Y-3996817D01*
G01X10802822Y-3993769D01*
G01X10811966Y-3993769D01*
G01X10820856Y-3996817D01*
G01X10823904Y-3999611D01*
G01X10826952Y-4005707D01*
G01X10761928Y-4057015D02*
G01X10737798Y-3993769D01*
G01X10713668Y-4057015D02*
G01X10737798Y-3993769D01*
G01X9472412Y-2913367D02*
G01X9502130Y-2913367D01*
G01X9505178Y-2886697D01*
G01X9502130Y-2889745D01*
G01X9493240Y-2892793D01*
G01X9484350Y-2892793D01*
G01X9475460Y-2889745D01*
G01X9469618Y-2883903D01*
G01X9466570Y-2875013D01*
G01X9466570Y-2868917D01*
G01X9469618Y-2860027D01*
G01X9475460Y-2854185D01*
G01X9484350Y-2851137D01*
G01X9493240Y-2851137D01*
G01X9502130Y-2854185D01*
G01X9505178Y-2857233D01*
G01X9507972Y-2863075D01*
G01X10336085Y-4057015D02*
G01X10303065Y-4057015D01*
G01X10321099Y-4032885D01*
G01X10312209Y-4032885D01*
G01X10306113Y-4029837D01*
G01X10303065Y-4026789D01*
G01X10300017Y-4017899D01*
G01X10300017Y-4011803D01*
G01X10303065Y-4002659D01*
G01X10309161Y-3996817D01*
G01X10318051Y-3993769D01*
G01X10327195Y-3993769D01*
G01X10336085Y-3996817D01*
G01X10339133Y-3999611D01*
G01X10342181Y-4005707D01*
G01X10277157Y-4057015D02*
G01X10253027Y-3993769D01*
G01X10228897Y-4057015D02*
G01X10253027Y-3993769D01*
G01X10199941Y-4057015D02*
G01X10166667Y-4057015D01*
G01X10184955Y-4032885D01*
G01X10175811Y-4032885D01*
G01X10169715Y-4029837D01*
G01X10166667Y-4026789D01*
G01X10163873Y-4017899D01*
G01X10163873Y-4011803D01*
G01X10166667Y-4002659D01*
G01X10172763Y-3996817D01*
G01X10181907Y-3993769D01*
G01X10190797Y-3993769D01*
G01X10199941Y-3996817D01*
G01X10202989Y-3999611D01*
G01X10206037Y-4005707D01*
G01X10039552Y-4044823D02*
G01X10033456Y-4047871D01*
G01X10024566Y-4057015D01*
G01X10024566Y-3993769D01*
G01X9983418Y-4057015D02*
G01X9992562Y-4053967D01*
G01X9998658Y-4044823D01*
G01X10001706Y-4029837D01*
G01X10001706Y-4020693D01*
G01X9998658Y-4005707D01*
G01X9992562Y-3996817D01*
G01X9983418Y-3993769D01*
G01X9977576Y-3993769D01*
G01X9968432Y-3996817D01*
G01X9962336Y-4005707D01*
G01X9959542Y-4020693D01*
G01X9959542Y-4029837D01*
G01X9962336Y-4044823D01*
G01X9968432Y-4053967D01*
G01X9977576Y-4057015D01*
G01X9983418Y-4057015D01*
G01X9212570Y-4056367D02*
G01X9242288Y-3994137D01*
G01X9253972Y-4056367D02*
G01X9212570Y-4056367D01*
G01X9493240Y-4056367D02*
G01X9502130Y-4053319D01*
G01X9505178Y-4047477D01*
G01X9505178Y-4041635D01*
G01X9502130Y-4035793D01*
G01X9496288Y-4032745D01*
G01X9484350Y-4029697D01*
G01X9475460Y-4026903D01*
G01X9469618Y-4020807D01*
G01X9466570Y-4014965D01*
G01X9466570Y-4006075D01*
G01X9469618Y-4000233D01*
G01X9472412Y-3997185D01*
G01X9481302Y-3994137D01*
G01X9493240Y-3994137D01*
G01X9502130Y-3997185D01*
G01X9505178Y-4000233D01*
G01X9507972Y-4006075D01*
G01X9507972Y-4014965D01*
G01X9505178Y-4020807D01*
G01X9499082Y-4026903D01*
G01X9490192Y-4029697D01*
G01X9478508Y-4032745D01*
G01X9472412Y-4035793D01*
G01X9469618Y-4041635D01*
G01X9469618Y-4047477D01*
G01X9472412Y-4053319D01*
G01X9481302Y-4056367D01*
G01X9493240Y-4056367D01*
G01X9723618Y-4035793D02*
G01X9726412Y-4026903D01*
G01X9732508Y-4020807D01*
G01X9741398Y-4018013D01*
G01X9744192Y-4018013D01*
G01X9753082Y-4020807D01*
G01X9759178Y-4026903D01*
G01X9761972Y-4035793D01*
G01X9761972Y-4038587D01*
G01X9759178Y-4047477D01*
G01X9753082Y-4053319D01*
G01X9744192Y-4056367D01*
G01X9741398Y-4056367D01*
G01X9732508Y-4053319D01*
G01X9726412Y-4047477D01*
G01X9723618Y-4035793D01*
G01X9723618Y-4020807D01*
G01X9726412Y-4006075D01*
G01X9732508Y-3997185D01*
G01X9741398Y-3994137D01*
G01X9747240Y-3994137D01*
G01X9756130Y-3997185D01*
G01X9759178Y-4003027D01*
G01X10760192Y-2913367D02*
G01X10769082Y-2910319D01*
G01X10775178Y-2901683D01*
G01X10777972Y-2886697D01*
G01X10777972Y-2877807D01*
G01X10775178Y-2863075D01*
G01X10769082Y-2854185D01*
G01X10760192Y-2851137D01*
G01X10754350Y-2851137D01*
G01X10745460Y-2854185D01*
G01X10739618Y-2863075D01*
G01X10736570Y-2877807D01*
G01X10736570Y-2886697D01*
G01X10739618Y-2901683D01*
G01X10745460Y-2910319D01*
G01X10754350Y-2913367D01*
G01X10760192Y-2913367D01*
G01X10523972Y-2901683D02*
G01X10518130Y-2904477D01*
G01X10509240Y-2913367D01*
G01X10509240Y-2851137D01*
G01X9193012Y-2904477D02*
G01X9196060Y-2910319D01*
G01X9204950Y-2913367D01*
G01X9210792Y-2913367D01*
G01X9219682Y-2910319D01*
G01X9225778Y-2901683D01*
G01X9228572Y-2886697D01*
G01X9228572Y-2871965D01*
G01X9225778Y-2860027D01*
G01X9219682Y-2854185D01*
G01X9210792Y-2851137D01*
G01X9207998Y-2851137D01*
G01X9199108Y-2854185D01*
G01X9193012Y-2860027D01*
G01X9190218Y-2868917D01*
G01X9190218Y-2871965D01*
G01X9193012Y-2880855D01*
G01X9199108Y-2886697D01*
G01X9207998Y-2889745D01*
G01X9210792Y-2889745D01*
G01X9219682Y-2886697D01*
G01X9225778Y-2880855D01*
G01X9228572Y-2871965D01*
G01X10267178Y-2898635D02*
G01X10267178Y-2901683D01*
G01X10264130Y-2907525D01*
G01X10261082Y-2910319D01*
G01X10255240Y-2913367D01*
G01X10243302Y-2913367D01*
G01X10237460Y-2910319D01*
G01X10234412Y-2907525D01*
G01X10231618Y-2901683D01*
G01X10231618Y-2895587D01*
G01X10234412Y-2889745D01*
G01X10240508Y-2880855D01*
G01X10269972Y-2851137D01*
G01X10228570Y-2851137D01*
G01X10010130Y-2913367D02*
G01X9977618Y-2913367D01*
G01X9995398Y-2889745D01*
G01X9986508Y-2889745D01*
G01X9980412Y-2886697D01*
G01X9977618Y-2883903D01*
G01X9974570Y-2875013D01*
G01X9974570Y-2868917D01*
G01X9977618Y-2860027D01*
G01X9983460Y-2854185D01*
G01X9992350Y-2851137D01*
G01X10001240Y-2851137D01*
G01X10010130Y-2854185D01*
G01X10013178Y-2857233D01*
G01X10015972Y-2863075D01*
G01X9732508Y-2913367D02*
G01X9761972Y-2871965D01*
G01X9717522Y-2871965D01*
G01X9732508Y-2913367D02*
G01X9732508Y-2851137D01*
G54D13*
G01X10779409Y-3313808D02*
G01X10714893Y-3313808D01*
G01X10701939Y-3318126D01*
G01X10693303Y-3326762D01*
G01X10689239Y-3339716D01*
G01X10689239Y-3348098D01*
G01X10693303Y-3361052D01*
G01X10701939Y-3369688D01*
G01X10714893Y-3374006D01*
G01X10779409Y-3374006D01*
G01X10766455Y-3466970D02*
G01X10775091Y-3458334D01*
G01X10779409Y-3445634D01*
G01X10779409Y-3428362D01*
G01X10775091Y-3415408D01*
G01X10766455Y-3406772D01*
G01X10757819Y-3406772D01*
G01X10749437Y-3411090D01*
G01X10745119Y-3415408D01*
G01X10740801Y-3424044D01*
G01X10732165Y-3449952D01*
G01X10727847Y-3458334D01*
G01X10723529Y-3462652D01*
G01X10714893Y-3466970D01*
G01X10701939Y-3466970D01*
G01X10693303Y-3458334D01*
G01X10689239Y-3445634D01*
G01X10689239Y-3428362D01*
G01X10693303Y-3415408D01*
G01X10701939Y-3406772D01*
G01X10779409Y-3499736D02*
G01X10689239Y-3499736D01*
G01X10779409Y-3499736D02*
G01X10779409Y-3538598D01*
G01X10775091Y-3551298D01*
G01X10770773Y-3555616D01*
G01X10762137Y-3559934D01*
G01X10753755Y-3559934D01*
G01X10745119Y-3555616D01*
G01X10740801Y-3551298D01*
G01X10736483Y-3538598D01*
G01X10736483Y-3499736D02*
G01X10736483Y-3538598D01*
G01X10732165Y-3551298D01*
G01X10727847Y-3555616D01*
G01X10719211Y-3559934D01*
G01X10706257Y-3559934D01*
G01X10697621Y-3555616D01*
G01X10693303Y-3551298D01*
G01X10689239Y-3538598D01*
G01X10689239Y-3499736D01*
G54D14*
G01X9750359Y-2211739D02*
G01X9758741Y-2203357D01*
G01X9762805Y-2190911D01*
G01X9762805Y-2174401D01*
G01X9758741Y-2161955D01*
G01X9750359Y-2153827D01*
G01X9741977Y-2153827D01*
G01X9733849Y-2157891D01*
G01X9729531Y-2161955D01*
G01X9725467Y-2170337D01*
G01X9717339Y-2194975D01*
G01X9713021Y-2203357D01*
G01X9708957Y-2207421D01*
G01X9700575Y-2211739D01*
G01X9688129Y-2211739D01*
G01X9680001Y-2203357D01*
G01X9675937Y-2190911D01*
G01X9675937Y-2174401D01*
G01X9680001Y-2161955D01*
G01X9688129Y-2153827D01*
G01X9762805Y-2246537D02*
G01X9675937Y-2246537D01*
G01X9762805Y-2246537D02*
G01X9762805Y-2275493D01*
G01X9758741Y-2287939D01*
G01X9750359Y-2296321D01*
G01X9741977Y-2300385D01*
G01X9729531Y-2304449D01*
G01X9708957Y-2304449D01*
G01X9696511Y-2300385D01*
G01X9688129Y-2296321D01*
G01X9680001Y-2287939D01*
G01X9675937Y-2275493D01*
G01X9675937Y-2246537D01*
G01X9762805Y-2372521D02*
G01X9675937Y-2339247D01*
G01X9762805Y-2372521D02*
G01X9675937Y-2405541D01*
G01X9704893Y-2351693D02*
G01X9704893Y-2393095D01*
G01X9510354Y-2231754D02*
G01X9518736Y-2223372D01*
G01X9522800Y-2210926D01*
G01X9522800Y-2194416D01*
G01X9518736Y-2181970D01*
G01X9510354Y-2173842D01*
G01X9501972Y-2173842D01*
G01X9493844Y-2177906D01*
G01X9489526Y-2181970D01*
G01X9485462Y-2190352D01*
G01X9477334Y-2214990D01*
G01X9473016Y-2223372D01*
G01X9468952Y-2227436D01*
G01X9460570Y-2231754D01*
G01X9448124Y-2231754D01*
G01X9439996Y-2223372D01*
G01X9435932Y-2210926D01*
G01X9435932Y-2194416D01*
G01X9439996Y-2181970D01*
G01X9448124Y-2173842D01*
G01X9501972Y-2328782D02*
G01X9510354Y-2324464D01*
G01X9518736Y-2316336D01*
G01X9522800Y-2307954D01*
G01X9522800Y-2291444D01*
G01X9518736Y-2283062D01*
G01X9510354Y-2274934D01*
G01X9501972Y-2270870D01*
G01X9489526Y-2266552D01*
G01X9468952Y-2266552D01*
G01X9456506Y-2270870D01*
G01X9448124Y-2274934D01*
G01X9439996Y-2283062D01*
G01X9435932Y-2291444D01*
G01X9435932Y-2307954D01*
G01X9439996Y-2316336D01*
G01X9448124Y-2324464D01*
G01X9456506Y-2328782D01*
G01X9522800Y-2363580D02*
G01X9435932Y-2363580D01*
G01X9435932Y-2363580D02*
G01X9435932Y-2413364D01*
G01X9252798Y-2274345D02*
G01X9165930Y-2274345D01*
G01X9252798Y-2245389D02*
G01X9252798Y-2303301D01*
G01X9252798Y-2338099D02*
G01X9165930Y-2396011D01*
G01X9252798Y-2396011D02*
G01X9165930Y-2338099D01*
G01X10032807Y-2260782D02*
G01X9945939Y-2260782D01*
G01X10032807Y-2260782D02*
G01X10032807Y-2289738D01*
G01X10028743Y-2301930D01*
G01X10020361Y-2310312D01*
G01X10011979Y-2314376D01*
G01X9999533Y-2318694D01*
G01X9978959Y-2318694D01*
G01X9966513Y-2314376D01*
G01X9958131Y-2310312D01*
G01X9950003Y-2301930D01*
G01X9945939Y-2289738D01*
G01X9945939Y-2260782D01*
G01X10032807Y-2361874D02*
G01X10032807Y-2407340D01*
G01X9999533Y-2382448D01*
G01X9999533Y-2394894D01*
G01X9995469Y-2403276D01*
G01X9991405Y-2407340D01*
G01X9978959Y-2411404D01*
G01X9970577Y-2411404D01*
G01X9958131Y-2407340D01*
G01X9950003Y-2399212D01*
G01X9945939Y-2386766D01*
G01X9945939Y-2374320D01*
G01X9950003Y-2361874D01*
G01X9954067Y-2357810D01*
G01X9962449Y-2353492D01*
G01X10272786Y-2260782D02*
G01X10185918Y-2260782D01*
G01X10272786Y-2260782D02*
G01X10272786Y-2289738D01*
G01X10268722Y-2301930D01*
G01X10260340Y-2310312D01*
G01X10251958Y-2314376D01*
G01X10239512Y-2318694D01*
G01X10218938Y-2318694D01*
G01X10206492Y-2314376D01*
G01X10198110Y-2310312D01*
G01X10189982Y-2301930D01*
G01X10185918Y-2289738D01*
G01X10185918Y-2260782D01*
G01X10251958Y-2357810D02*
G01X10256276Y-2357810D01*
G01X10264404Y-2361874D01*
G01X10268722Y-2365938D01*
G01X10272786Y-2374320D01*
G01X10272786Y-2390830D01*
G01X10268722Y-2399212D01*
G01X10264404Y-2403276D01*
G01X10256276Y-2407340D01*
G01X10247894Y-2407340D01*
G01X10239512Y-2403276D01*
G01X10227320Y-2394894D01*
G01X10185918Y-2353492D01*
G01X10185918Y-2411404D01*
G01X10782793Y-2260782D02*
G01X10695925Y-2260782D01*
G01X10782793Y-2260782D02*
G01X10782793Y-2289738D01*
G01X10778729Y-2301930D01*
G01X10770347Y-2310312D01*
G01X10761965Y-2314376D01*
G01X10749519Y-2318694D01*
G01X10728945Y-2318694D01*
G01X10716499Y-2314376D01*
G01X10708117Y-2310312D01*
G01X10699989Y-2301930D01*
G01X10695925Y-2289738D01*
G01X10695925Y-2260782D01*
G01X10782793Y-2378384D02*
G01X10778729Y-2365938D01*
G01X10766283Y-2357810D01*
G01X10745455Y-2353492D01*
G01X10733009Y-2353492D01*
G01X10712435Y-2357810D01*
G01X10699989Y-2365938D01*
G01X10695925Y-2378384D01*
G01X10695925Y-2386766D01*
G01X10699989Y-2399212D01*
G01X10712435Y-2407340D01*
G01X10733009Y-2411404D01*
G01X10745455Y-2411404D01*
G01X10766283Y-2407340D01*
G01X10778729Y-2399212D01*
G01X10782793Y-2386766D01*
G01X10782793Y-2378384D01*
G01X10532806Y-2260782D02*
G01X10445938Y-2260782D01*
G01X10532806Y-2260782D02*
G01X10532806Y-2289738D01*
G01X10528742Y-2301930D01*
G01X10520360Y-2310312D01*
G01X10511978Y-2314376D01*
G01X10499532Y-2318694D01*
G01X10478958Y-2318694D01*
G01X10466512Y-2314376D01*
G01X10458130Y-2310312D01*
G01X10450002Y-2301930D01*
G01X10445938Y-2289738D01*
G01X10445938Y-2260782D01*
G01X10516296Y-2353492D02*
G01X10520360Y-2361874D01*
G01X10532806Y-2374320D01*
G01X10445938Y-2374320D01*
G01X9760798Y-4512095D02*
G01X9673930Y-4512095D01*
G01X9760798Y-4512095D02*
G01X9673930Y-4545115D01*
G01X9760798Y-4578135D02*
G01X9673930Y-4545115D01*
G01X9760798Y-4578135D02*
G01X9673930Y-4578135D01*
G01X9760798Y-4612933D02*
G01X9673930Y-4612933D01*
G01X9748352Y-4705897D02*
G01X9756734Y-4697515D01*
G01X9760798Y-4685069D01*
G01X9760798Y-4668559D01*
G01X9756734Y-4656113D01*
G01X9748352Y-4647985D01*
G01X9739970Y-4647985D01*
G01X9731842Y-4652049D01*
G01X9727524Y-4656113D01*
G01X9723460Y-4664495D01*
G01X9715332Y-4689387D01*
G01X9711014Y-4697515D01*
G01X9706950Y-4701579D01*
G01X9698568Y-4705897D01*
G01X9686122Y-4705897D01*
G01X9677994Y-4697515D01*
G01X9673930Y-4685069D01*
G01X9673930Y-4668559D01*
G01X9677994Y-4656113D01*
G01X9686122Y-4647985D01*
G01X9760798Y-4765587D02*
G01X9756734Y-4757205D01*
G01X9748352Y-4749077D01*
G01X9739970Y-4745013D01*
G01X9727524Y-4740695D01*
G01X9706950Y-4740695D01*
G01X9694504Y-4745013D01*
G01X9686122Y-4749077D01*
G01X9677994Y-4757205D01*
G01X9673930Y-4765587D01*
G01X9673930Y-4782097D01*
G01X9677994Y-4790479D01*
G01X9686122Y-4798607D01*
G01X9694504Y-4802925D01*
G01X9706950Y-4806989D01*
G01X9727524Y-4806989D01*
G01X9739970Y-4802925D01*
G01X9748352Y-4798607D01*
G01X9756734Y-4790479D01*
G01X9760798Y-4782097D01*
G01X9760798Y-4765587D01*
G01X9494352Y-4566954D02*
G01X9502734Y-4558572D01*
G01X9506798Y-4546126D01*
G01X9506798Y-4529616D01*
G01X9502734Y-4517170D01*
G01X9494352Y-4509042D01*
G01X9485970Y-4509042D01*
G01X9477842Y-4513106D01*
G01X9473524Y-4517170D01*
G01X9469460Y-4525552D01*
G01X9461332Y-4550190D01*
G01X9457014Y-4558572D01*
G01X9452950Y-4562636D01*
G01X9444568Y-4566954D01*
G01X9432122Y-4566954D01*
G01X9423994Y-4558572D01*
G01X9419930Y-4546126D01*
G01X9419930Y-4529616D01*
G01X9423994Y-4517170D01*
G01X9432122Y-4509042D01*
G01X9485970Y-4663982D02*
G01X9494352Y-4659664D01*
G01X9502734Y-4651536D01*
G01X9506798Y-4643154D01*
G01X9506798Y-4626644D01*
G01X9502734Y-4618262D01*
G01X9494352Y-4610134D01*
G01X9485970Y-4606070D01*
G01X9473524Y-4601752D01*
G01X9452950Y-4601752D01*
G01X9440504Y-4606070D01*
G01X9432122Y-4610134D01*
G01X9423994Y-4618262D01*
G01X9419930Y-4626644D01*
G01X9419930Y-4643154D01*
G01X9423994Y-4651536D01*
G01X9432122Y-4659664D01*
G01X9440504Y-4663982D01*
G01X9506798Y-4698780D02*
G01X9419930Y-4698780D01*
G01X9506798Y-4756692D02*
G01X9448886Y-4698780D01*
G01X9469460Y-4719608D02*
G01X9419930Y-4756692D01*
G01X9252798Y-4505989D02*
G01X9165930Y-4505989D01*
G01X9252798Y-4505989D02*
G01X9252798Y-4543073D01*
G01X9248734Y-4555519D01*
G01X9244416Y-4559583D01*
G01X9236288Y-4563901D01*
G01X9227906Y-4563901D01*
G01X9219524Y-4559583D01*
G01X9215460Y-4555519D01*
G01X9211396Y-4543073D01*
G01X9211396Y-4505989D01*
G01X9211396Y-4534945D02*
G01X9165930Y-4563901D01*
G01X9252798Y-4598699D02*
G01X9165930Y-4656611D01*
G01X9252798Y-4656611D02*
G01X9165930Y-4598699D01*
G01X10014798Y-4512095D02*
G01X9927930Y-4512095D01*
G01X10014798Y-4512095D02*
G01X9927930Y-4545115D01*
G01X10014798Y-4578135D02*
G01X9927930Y-4545115D01*
G01X10014798Y-4578135D02*
G01X9927930Y-4578135D01*
G01X10014798Y-4637825D02*
G01X10010734Y-4629443D01*
G01X10002352Y-4621315D01*
G01X9993970Y-4617251D01*
G01X9981524Y-4612933D01*
G01X9960950Y-4612933D01*
G01X9948504Y-4617251D01*
G01X9940122Y-4621315D01*
G01X9931994Y-4629443D01*
G01X9927930Y-4637825D01*
G01X9927930Y-4654335D01*
G01X9931994Y-4662717D01*
G01X9940122Y-4670845D01*
G01X9948504Y-4675163D01*
G01X9960950Y-4679227D01*
G01X9981524Y-4679227D01*
G01X9993970Y-4675163D01*
G01X10002352Y-4670845D01*
G01X10010734Y-4662717D01*
G01X10014798Y-4654335D01*
G01X10014798Y-4637825D01*
G01X10002352Y-4771937D02*
G01X10010734Y-4763809D01*
G01X10014798Y-4751363D01*
G01X10014798Y-4734853D01*
G01X10010734Y-4722407D01*
G01X10002352Y-4714025D01*
G01X9993970Y-4714025D01*
G01X9985842Y-4718343D01*
G01X9981524Y-4722407D01*
G01X9977460Y-4730535D01*
G01X9969332Y-4755427D01*
G01X9965014Y-4763809D01*
G01X9960950Y-4767873D01*
G01X9952568Y-4771937D01*
G01X9940122Y-4771937D01*
G01X9931994Y-4763809D01*
G01X9927930Y-4751363D01*
G01X9927930Y-4734853D01*
G01X9931994Y-4722407D01*
G01X9940122Y-4714025D01*
G01X10014798Y-4806735D02*
G01X9927930Y-4806735D01*
G01X10268798Y-4517170D02*
G01X10268798Y-4562636D01*
G01X10235524Y-4537998D01*
G01X10235524Y-4550190D01*
G01X10231460Y-4558572D01*
G01X10227396Y-4562636D01*
G01X10214950Y-4566954D01*
G01X10206568Y-4566954D01*
G01X10194122Y-4562636D01*
G01X10185994Y-4554508D01*
G01X10181930Y-4542062D01*
G01X10181930Y-4529616D01*
G01X10185994Y-4517170D01*
G01X10190058Y-4513106D01*
G01X10198440Y-4509042D01*
G01X10268798Y-4601752D02*
G01X10181930Y-4635026D01*
G01X10268798Y-4668046D02*
G01X10181930Y-4635026D01*
G01X10268798Y-4711226D02*
G01X10268798Y-4756692D01*
G01X10235524Y-4731800D01*
G01X10235524Y-4744246D01*
G01X10231460Y-4752628D01*
G01X10227396Y-4756692D01*
G01X10214950Y-4760756D01*
G01X10206568Y-4760756D01*
G01X10194122Y-4756692D01*
G01X10185994Y-4748564D01*
G01X10181930Y-4736118D01*
G01X10181930Y-4723672D01*
G01X10185994Y-4711226D01*
G01X10190058Y-4707162D01*
G01X10198440Y-4702844D01*
G01X10776798Y-4555519D02*
G01X10776798Y-4514117D01*
G01X10739460Y-4510053D01*
G01X10743524Y-4514117D01*
G01X10747842Y-4526563D01*
G01X10747842Y-4539009D01*
G01X10743524Y-4551455D01*
G01X10735396Y-4559583D01*
G01X10722950Y-4563901D01*
G01X10714568Y-4563901D01*
G01X10702122Y-4559583D01*
G01X10693994Y-4551455D01*
G01X10689930Y-4539009D01*
G01X10689930Y-4526563D01*
G01X10693994Y-4514117D01*
G01X10698058Y-4510053D01*
G01X10706440Y-4505989D01*
G01X10776798Y-4598699D02*
G01X10689930Y-4631973D01*
G01X10776798Y-4664993D02*
G01X10689930Y-4631973D01*
G01X10501970Y-4571018D02*
G01X10510352Y-4566954D01*
G01X10518734Y-4558572D01*
G01X10522798Y-4550190D01*
G01X10522798Y-4533680D01*
G01X10518734Y-4525552D01*
G01X10510352Y-4517170D01*
G01X10501970Y-4513106D01*
G01X10489524Y-4509042D01*
G01X10468950Y-4509042D01*
G01X10456504Y-4513106D01*
G01X10448122Y-4517170D01*
G01X10439994Y-4525552D01*
G01X10435930Y-4533680D01*
G01X10435930Y-4550190D01*
G01X10439994Y-4558572D01*
G01X10448122Y-4566954D01*
G01X10456504Y-4571018D01*
G01X10468950Y-4571018D01*
G01X10468950Y-4550190D02*
G01X10468950Y-4571018D01*
G01X10522798Y-4605816D02*
G01X10435930Y-4605816D01*
G01X10522798Y-4605816D02*
G01X10435930Y-4663728D01*
G01X10522798Y-4663728D02*
G01X10435930Y-4663728D01*
G01X10522798Y-4698526D02*
G01X10435930Y-4698526D01*
G01X10522798Y-4698526D02*
G01X10522798Y-4727482D01*
G01X10518734Y-4739928D01*
G01X10510352Y-4748310D01*
G01X10501970Y-4752374D01*
G01X10489524Y-4756438D01*
G01X10468950Y-4756438D01*
G01X10456504Y-4752374D01*
G01X10448122Y-4748310D01*
G01X10439994Y-4739928D01*
G01X10435930Y-4727482D01*
G01X10435930Y-4698526D01*
G01X10020822Y-3516059D02*
G01X10088386Y-3516059D01*
G01X10020822Y-3516059D02*
G01X10020822Y-3487103D01*
G01X10023870Y-3477451D01*
G01X10027172Y-3474403D01*
G01X10033522Y-3471101D01*
G01X10040126Y-3471101D01*
G01X10046476Y-3474403D01*
G01X10049778Y-3477451D01*
G01X10052826Y-3487103D01*
G01X10052826Y-3516059D02*
G01X10052826Y-3487103D01*
G01X10056128Y-3477451D01*
G01X10059430Y-3474403D01*
G01X10065780Y-3471101D01*
G01X10075432Y-3471101D01*
G01X10081782Y-3474403D01*
G01X10085084Y-3477451D01*
G01X10088386Y-3487103D01*
G01X10088386Y-3516059D01*
G01X10020822Y-3414967D02*
G01X10088386Y-3440621D01*
G01X10020822Y-3414967D02*
G01X10088386Y-3389059D01*
G01X10065780Y-3430969D02*
G01X10065780Y-3398711D01*
G01X10020822Y-3335973D02*
G01X10088386Y-3335973D01*
G01X10020822Y-3358579D02*
G01X10020822Y-3313621D01*
G01X10059430Y-3283141D02*
G01X10059430Y-3225229D01*
G01X10249422Y-3516059D02*
G01X10316986Y-3516059D01*
G01X10249422Y-3516059D02*
G01X10249422Y-3487103D01*
G01X10252470Y-3477451D01*
G01X10255772Y-3474403D01*
G01X10262122Y-3471101D01*
G01X10268726Y-3471101D01*
G01X10275076Y-3474403D01*
G01X10278378Y-3477451D01*
G01X10281426Y-3487103D01*
G01X10281426Y-3516059D02*
G01X10281426Y-3487103D01*
G01X10284728Y-3477451D01*
G01X10288030Y-3474403D01*
G01X10294380Y-3471101D01*
G01X10304032Y-3471101D01*
G01X10310382Y-3474403D01*
G01X10313684Y-3477451D01*
G01X10316986Y-3487103D01*
G01X10316986Y-3516059D01*
G01X10249422Y-3414967D02*
G01X10316986Y-3440621D01*
G01X10249422Y-3414967D02*
G01X10316986Y-3389059D01*
G01X10294380Y-3430969D02*
G01X10294380Y-3398711D01*
G01X10249422Y-3335973D02*
G01X10316986Y-3335973D01*
G01X10249422Y-3358579D02*
G01X10249422Y-3313621D01*
G01X10259074Y-3254185D02*
G01X10316986Y-3254185D01*
G01X10288030Y-3283141D02*
G01X10288030Y-3225229D01*
G54D10*
G01X9075423Y-3209768D02*
G01X9075423Y-3256250D01*
G01X9078471Y-3265394D01*
G01X9084821Y-3271744D01*
G01X9093965Y-3274792D01*
G01X9100315Y-3274792D01*
G01X9109459Y-3271744D01*
G01X9115555Y-3265394D01*
G01X9118857Y-3256250D01*
G01X9118857Y-3209768D01*
G01X9192263Y-3209768D02*
G01X9161275Y-3274792D01*
G01X9149083Y-3209768D02*
G01X9192263Y-3209768D01*
G01X3398774Y-2919971D02*
G01X3461766Y-2919971D01*
G01X3430270Y-2951467D02*
G01X3430270Y-2888475D01*
G01X2887167Y-3119691D02*
G01X2952191Y-3119691D01*
G01X2887167Y-3119691D02*
G01X2887167Y-3091751D01*
G01X2890215Y-3082607D01*
G01X2893263Y-3079559D01*
G01X2899613Y-3076257D01*
G01X2905709Y-3076257D01*
G01X2911805Y-3079559D01*
G01X2914853Y-3082607D01*
G01X2918155Y-3091751D01*
G01X2918155Y-3119691D02*
G01X2918155Y-3091751D01*
G01X2921203Y-3082607D01*
G01X2924251Y-3079559D01*
G01X2930347Y-3076257D01*
G01X2939745Y-3076257D01*
G01X2945841Y-3079559D01*
G01X2949143Y-3082607D01*
G01X2952191Y-3091751D01*
G01X2952191Y-3119691D01*
G01X2887167Y-3046031D02*
G01X2933649Y-3046031D01*
G01X2942793Y-3042983D01*
G01X2949143Y-3036887D01*
G01X2952191Y-3027489D01*
G01X2952191Y-3021393D01*
G01X2949143Y-3011995D01*
G01X2942793Y-3005899D01*
G01X2933649Y-3002851D01*
G01X2887167Y-3002851D01*
G01X2887167Y-2929445D02*
G01X2952191Y-2972625D01*
G01X2887167Y-2972625D02*
G01X2887167Y-2929445D01*
G01X2952191Y-2972625D02*
G01X2952191Y-2929445D01*
G01X2887167Y-2856039D02*
G01X2952191Y-2899219D01*
G01X2887167Y-2899219D02*
G01X2887167Y-2856039D01*
G01X2952191Y-2899219D02*
G01X2952191Y-2856039D01*
G01X2887167Y-2825813D02*
G01X2952191Y-2825813D01*
G01X2887167Y-2825813D02*
G01X2887167Y-2785681D01*
G01X2918155Y-2825813D02*
G01X2918155Y-2801175D01*
G01X2952191Y-2825813D02*
G01X2952191Y-2785681D01*
G01X2887167Y-2755455D02*
G01X2952191Y-2755455D01*
G01X2887167Y-2755455D02*
G01X2887167Y-2727769D01*
G01X2890215Y-2718371D01*
G01X2893263Y-2715323D01*
G01X2899613Y-2712275D01*
G01X2905709Y-2712275D01*
G01X2911805Y-2715323D01*
G01X2914853Y-2718371D01*
G01X2918155Y-2727769D01*
G01X2918155Y-2755455D01*
G01X2918155Y-2733865D02*
G01X2952191Y-2712275D01*
G01X2902661Y-2679001D02*
G01X2899613Y-2679001D01*
G01X2893263Y-2675953D01*
G01X2890215Y-2672905D01*
G01X2887167Y-2666809D01*
G01X2887167Y-2654363D01*
G01X2890215Y-2648013D01*
G01X2893263Y-2644965D01*
G01X2899613Y-2641917D01*
G01X2905709Y-2641917D01*
G01X2911805Y-2644965D01*
G01X2921203Y-2651315D01*
G01X2952191Y-2682049D01*
G01X2952191Y-2638869D01*
G01X4230384Y-3935324D02*
G01X4233432Y-3941420D01*
G01X4239528Y-3947770D01*
G01X4245878Y-3950818D01*
G01X4255022Y-3953866D01*
G01X4270516Y-3953866D01*
G01X4279914Y-3950818D01*
G01X4286010Y-3947770D01*
G01X4292360Y-3941420D01*
G01X4295408Y-3935324D01*
G01X4295408Y-3922878D01*
G01X4292360Y-3916782D01*
G01X4286010Y-3910432D01*
G01X4279914Y-3907384D01*
G01X4270516Y-3904336D01*
G01X4255022Y-3904336D01*
G01X4245878Y-3907384D01*
G01X4239528Y-3910432D01*
G01X4233432Y-3916782D01*
G01X4230384Y-3922878D01*
G01X4230384Y-3935324D01*
G01X4282962Y-3925926D02*
G01X4301504Y-3907384D01*
G01X4245878Y-3871062D02*
G01X4242830Y-3871062D01*
G01X4236480Y-3868014D01*
G01X4233432Y-3864966D01*
G01X4230384Y-3858870D01*
G01X4230384Y-3846424D01*
G01X4233432Y-3840074D01*
G01X4236480Y-3837026D01*
G01X4242830Y-3833978D01*
G01X4248926Y-3833978D01*
G01X4255022Y-3837026D01*
G01X4264420Y-3843376D01*
G01X4295408Y-3874110D01*
G01X4295408Y-3830930D01*
G01X5771835Y-3298828D02*
G01X5706811Y-3298828D01*
G01X5771835Y-3298828D02*
G01X5771835Y-3326768D01*
G01X5768787Y-3335912D01*
G01X5765739Y-3338960D01*
G01X5759389Y-3342262D01*
G01X5753293Y-3342262D01*
G01X5747197Y-3338960D01*
G01X5744149Y-3335912D01*
G01X5740847Y-3326768D01*
G01X5740847Y-3298828D01*
G01X5740847Y-3320418D02*
G01X5706811Y-3342262D01*
G01X5771835Y-3409572D02*
G01X5771835Y-3378584D01*
G01X5744149Y-3375536D01*
G01X5747197Y-3378584D01*
G01X5750245Y-3387728D01*
G01X5750245Y-3397126D01*
G01X5747197Y-3406524D01*
G01X5740847Y-3412620D01*
G01X5731703Y-3415668D01*
G01X5725353Y-3415668D01*
G01X5716209Y-3412620D01*
G01X5709859Y-3406524D01*
G01X5706811Y-3397126D01*
G01X5706811Y-3387728D01*
G01X5709859Y-3378584D01*
G01X5713161Y-3375536D01*
G01X5719257Y-3372488D01*
G01X4035428Y-4159565D02*
G01X4035428Y-4224589D01*
G01X4035428Y-4159565D02*
G01X4063368Y-4159565D01*
G01X4072512Y-4162613D01*
G01X4075560Y-4165661D01*
G01X4078862Y-4172011D01*
G01X4078862Y-4178107D01*
G01X4075560Y-4184203D01*
G01X4072512Y-4187251D01*
G01X4063368Y-4190553D01*
G01X4035428Y-4190553D01*
G01X4057018Y-4190553D02*
G01X4078862Y-4224589D01*
G01X4146172Y-4168709D02*
G01X4143124Y-4162613D01*
G01X4133726Y-4159565D01*
G01X4127630Y-4159565D01*
G01X4118232Y-4162613D01*
G01X4112136Y-4172011D01*
G01X4109088Y-4187251D01*
G01X4109088Y-4202745D01*
G01X4112136Y-4215191D01*
G01X4118232Y-4221541D01*
G01X4127630Y-4224589D01*
G01X4130678Y-4224589D01*
G01X4139822Y-4221541D01*
G01X4146172Y-4215191D01*
G01X4149220Y-4206047D01*
G01X4149220Y-4202745D01*
G01X4146172Y-4193601D01*
G01X4139822Y-4187251D01*
G01X4130678Y-4184203D01*
G01X4127630Y-4184203D01*
G01X4118232Y-4187251D01*
G01X4112136Y-4193601D01*
G01X4109088Y-4202745D01*
G01X3326765Y-4458586D02*
G01X3391789Y-4458586D01*
G01X3326765Y-4458586D02*
G01X3326765Y-4430646D01*
G01X3329813Y-4421502D01*
G01X3332861Y-4418454D01*
G01X3339211Y-4415152D01*
G01X3345307Y-4415152D01*
G01X3351403Y-4418454D01*
G01X3354451Y-4421502D01*
G01X3357753Y-4430646D01*
G01X3357753Y-4458586D01*
G01X3357753Y-4436996D02*
G01X3391789Y-4415152D01*
G01X3326765Y-4341746D02*
G01X3391789Y-4372734D01*
G01X3326765Y-4384926D02*
G01X3326765Y-4341746D01*
G01X9370257Y426293D02*
G01X9363907Y432389D01*
G01X9354763Y435437D01*
G01X9342317Y435437D01*
G01X9332919Y432389D01*
G01X9326823Y426293D01*
G01X9326823Y419943D01*
G01X9329871Y413847D01*
G01X9332919Y410799D01*
G01X9339269Y407751D01*
G01X9357811Y401401D01*
G01X9363907Y398353D01*
G01X9366955Y395305D01*
G01X9370257Y388955D01*
G01X9370257Y379811D01*
G01X9363907Y373461D01*
G01X9354763Y370413D01*
G01X9342317Y370413D01*
G01X9332919Y373461D01*
G01X9326823Y379811D01*
G01X9400483Y435437D02*
G01X9415723Y370413D01*
G01X9431217Y435437D02*
G01X9415723Y370413D01*
G01X9431217Y435437D02*
G01X9446711Y370413D01*
G01X9462205Y435437D02*
G01X9446711Y370413D01*
G01X9523165Y435437D02*
G01X9492431Y392257D01*
G01X9538659Y392257D01*
G01X9523165Y435437D02*
G01X9523165Y370413D01*
G01X955980Y-4062562D02*
G01X890956Y-4062562D01*
G01X955980Y-4062562D02*
G01X955980Y-4090502D01*
G01X952932Y-4099646D01*
G01X949884Y-4102694D01*
G01X943534Y-4105996D01*
G01X937438Y-4105996D01*
G01X931342Y-4102694D01*
G01X928294Y-4099646D01*
G01X924992Y-4090502D01*
G01X924992Y-4062562D02*
G01X924992Y-4090502D01*
G01X921944Y-4099646D01*
G01X918896Y-4102694D01*
G01X912800Y-4105996D01*
G01X903402Y-4105996D01*
G01X897306Y-4102694D01*
G01X894004Y-4099646D01*
G01X890956Y-4090502D01*
G01X890956Y-4062562D01*
G01X934390Y-4136222D02*
G01X903402Y-4136222D01*
G01X894004Y-4139270D01*
G01X890956Y-4145366D01*
G01X890956Y-4154764D01*
G01X894004Y-4160860D01*
G01X903402Y-4170258D01*
G01X934390Y-4170258D02*
G01X890956Y-4170258D01*
G01X955980Y-4209628D02*
G01X903402Y-4209628D01*
G01X894004Y-4212676D01*
G01X890956Y-4219026D01*
G01X890956Y-4225122D01*
G01X934390Y-4200484D02*
G01X934390Y-4222074D01*
G01X955980Y-4264492D02*
G01X903402Y-4264492D01*
G01X894004Y-4267540D01*
G01X890956Y-4273890D01*
G01X890956Y-4279986D01*
G01X934390Y-4255348D02*
G01X934390Y-4276938D01*
G01X934390Y-4325452D02*
G01X931342Y-4319356D01*
G01X924992Y-4313260D01*
G01X915848Y-4310212D01*
G01X909498Y-4310212D01*
G01X900354Y-4313260D01*
G01X894004Y-4319356D01*
G01X890956Y-4325452D01*
G01X890956Y-4334850D01*
G01X894004Y-4340946D01*
G01X900354Y-4347296D01*
G01X909498Y-4350344D01*
G01X915848Y-4350344D01*
G01X924992Y-4347296D01*
G01X931342Y-4340946D01*
G01X934390Y-4334850D01*
G01X934390Y-4325452D01*
G01X934390Y-4380570D02*
G01X890956Y-4380570D01*
G01X921944Y-4380570D02*
G01X931342Y-4389714D01*
G01X934390Y-4395810D01*
G01X934390Y-4405208D01*
G01X931342Y-4411304D01*
G01X921944Y-4414606D01*
G01X890956Y-4414606D01*
G01X943534Y-4444832D02*
G01X946836Y-4450928D01*
G01X955980Y-4460072D01*
G01X890956Y-4460072D01*
G01X930580Y-74762D02*
G01X865556Y-74762D01*
G01X930580Y-74762D02*
G01X930580Y-102702D01*
G01X927532Y-111846D01*
G01X924484Y-114894D01*
G01X918134Y-118196D01*
G01X912038Y-118196D01*
G01X905942Y-114894D01*
G01X902894Y-111846D01*
G01X899592Y-102702D01*
G01X899592Y-74762D02*
G01X899592Y-102702D01*
G01X896544Y-111846D01*
G01X893496Y-114894D01*
G01X887400Y-118196D01*
G01X878002Y-118196D01*
G01X871906Y-114894D01*
G01X868604Y-111846D01*
G01X865556Y-102702D01*
G01X865556Y-74762D01*
G01X908990Y-148422D02*
G01X878002Y-148422D01*
G01X868604Y-151470D01*
G01X865556Y-157566D01*
G01X865556Y-166964D01*
G01X868604Y-173060D01*
G01X878002Y-182458D01*
G01X908990Y-182458D02*
G01X865556Y-182458D01*
G01X930580Y-221828D02*
G01X878002Y-221828D01*
G01X868604Y-224876D01*
G01X865556Y-231226D01*
G01X865556Y-237322D01*
G01X908990Y-212684D02*
G01X908990Y-234274D01*
G01X930580Y-276692D02*
G01X878002Y-276692D01*
G01X868604Y-279740D01*
G01X865556Y-286090D01*
G01X865556Y-292186D01*
G01X908990Y-267548D02*
G01X908990Y-289138D01*
G01X908990Y-337652D02*
G01X905942Y-331556D01*
G01X899592Y-325460D01*
G01X890448Y-322412D01*
G01X884098Y-322412D01*
G01X874954Y-325460D01*
G01X868604Y-331556D01*
G01X865556Y-337652D01*
G01X865556Y-347050D01*
G01X868604Y-353146D01*
G01X874954Y-359496D01*
G01X884098Y-362544D01*
G01X890448Y-362544D01*
G01X899592Y-359496D01*
G01X905942Y-353146D01*
G01X908990Y-347050D01*
G01X908990Y-337652D01*
G01X908990Y-392770D02*
G01X865556Y-392770D01*
G01X896544Y-392770D02*
G01X905942Y-401914D01*
G01X908990Y-408010D01*
G01X908990Y-417408D01*
G01X905942Y-423504D01*
G01X896544Y-426806D01*
G01X865556Y-426806D01*
G01X915086Y-460080D02*
G01X918134Y-460080D01*
G01X924484Y-463128D01*
G01X927532Y-466176D01*
G01X930580Y-472272D01*
G01X930580Y-484718D01*
G01X927532Y-491068D01*
G01X924484Y-494116D01*
G01X918134Y-497164D01*
G01X912038Y-497164D01*
G01X905942Y-494116D01*
G01X896544Y-487766D01*
G01X865556Y-457032D01*
G01X865556Y-500212D01*
G04 Text End*

G04 PolygonModel Start*
G54D16*
G01X5816600Y-2514280D02*
G03X4546685Y-2514613I-634957J-333D01*
G03X5816600Y-2514945I634957J0D01*
G01X5308600Y-2514280D02*
G03X5054599Y-2513643I-127001J152D01*
G03X5308597Y-2514945I127000J-485D01*
G01X2819400Y-3692931D02*
G02X2619400Y-3892931I-200000J0D01*
G01X2619400Y-3892931D02*
G01X419405Y-3892931D01*
G01X419405Y-3892931D02*
G01X289408Y-3892931D01*
G01X89408Y-3692931D02*
G01X89408Y-1362939D01*
G01X289408Y-1162939D02*
G01X2619400Y-1162939D01*
G01X2413000Y-3892931D02*
G01X2413000Y-1192936D01*
G01X2413000Y-1192936D02*
G01X2413000Y-1162939D01*
G01X513004Y-3892931D02*
G01X513004Y-1162939D01*
G01X2819400Y-3689731D02*
G01X2819400Y-3389732D01*
G01X2819400Y-3389732D02*
G01X2619400Y-3189732D01*
G01X2619400Y-3189732D02*
G01X2619400Y-1859737D01*
G01X2619400Y-1859737D02*
G01X2819400Y-1659738D01*
G01X2819400Y-1659738D02*
G01X2819400Y-1359738D01*
G01X289560Y-3893185D02*
G02X89662Y-3693287I0J199898D01*
G01X88646Y-1361313D02*
G02X288544Y-1161415I199898J0D01*
G01X2619756Y-1162939D02*
G02X2819654Y-1362837I0J-199898D01*
G01X2019402Y-1192936D02*
G01X2019402Y-3792931D01*
G01X2019402Y-3792931D02*
G01X1969414Y-3842918D01*
G54D17*
G01X10858500Y-2565400D02*
G01X10858500Y-2819400D01*
G01X10858500Y-2819400D02*
G01X9080500Y-2819400D01*
G01X9080500Y-2819400D02*
G01X9080500Y-2565400D01*
G01X9080500Y-4343400D02*
G01X9080500Y-4089400D01*
G01X9080500Y-4089400D02*
G01X10858500Y-4089400D01*
G01X10858500Y-4089400D02*
G01X10858500Y-4343400D01*
G01X10858500Y-4343400D02*
G01X9080500Y-4343400D01*
G54D16*
G01X11044098Y-4140200D02*
G01X11044098Y-2768600D01*
G01X8933942Y-2768600D02*
G01X8933942Y-4140200D01*
G01X9147302Y-4343400D02*
G01X10840898Y-4343400D01*
G54D17*
G01X9080500Y-4343400D02*
G01X9080500Y-4089400D01*
G01X9080500Y-4089400D02*
G01X10858500Y-4089400D01*
G01X10858500Y-4089400D02*
G01X10858500Y-4343400D01*
G01X10858500Y-4343400D02*
G01X9080500Y-4343400D01*
G54D16*
G01X10452100Y-2997200D02*
G01X11188700Y-2997200D01*
G01X11188700Y-2997200D02*
G01X11188700Y-3908476D01*
G01X11188700Y-3908476D02*
G01X10452100Y-3908476D01*
G01X10452100Y-3908476D02*
G01X10452100Y-2997200D01*
G01X8933942Y-4140200D02*
G03X9147302Y-4343400I208269J5069D01*
G01X9147302Y-2565400D02*
G03X8933942Y-2768600I-5091J-208269D01*
G01X10840898Y-4343400D02*
G03X11044098Y-4140200I0J203200D01*
G01X10840898Y-2565400D02*
G01X9147302Y-2565400D01*
G01X11044098Y-2768600D02*
G03X10974274Y-2615300I-203200J-0D01*
G03X10840898Y-2565400I-133377J-153300D01*
G54D17*
G01X9080500Y-2565400D02*
G01X9619535Y-2559984D01*
G01X10858500Y-2565400D01*
G54D18*
G01X4707397Y-3898788D02*
G01X4707397Y-3568789D01*
G01X4707397Y-3568789D02*
G03X4707280Y-3898798I-143707J-164954D01*
G54D16*
G01X5537200Y-3454321D02*
G01X5537200Y-3561199D01*
G01X5536796Y-4211201D02*
G01X5536796Y-4318079D01*
G01X5422199Y-3561199D02*
G01X5652201Y-3561199D01*
G01X5652201Y-3561199D02*
G01X5652201Y-4211201D01*
G01X5649199Y-4211201D02*
G01X5425201Y-4211201D01*
G01X5422199Y-4211201D02*
G01X5422199Y-3561199D01*
G01X4190921Y-4394200D02*
G01X4297799Y-4394200D01*
G01X4947801Y-4394604D02*
G01X5054679Y-4394604D01*
G01X4297799Y-4509201D02*
G01X4297799Y-4279199D01*
G01X4297799Y-4279199D02*
G01X4947801Y-4279199D01*
G01X4947801Y-4282201D02*
G01X4947801Y-4506199D01*
G01X4947801Y-4509201D02*
G01X4297799Y-4509201D01*
G01X3446402Y-4196199D02*
G01X3446399Y-3576201D01*
G01X3716398Y-4196199D02*
G01X3716401Y-3576201D01*
G01X3716398Y-3576201D02*
G01X3446399Y-3576201D01*
G01X3716401Y-4196199D02*
G01X3446402Y-4196199D01*
G01X10189190Y315803D02*
G01X9789188Y315803D01*
G01X10189190Y315803D02*
G01X10189190Y-84191D01*
G01X9789188Y315803D02*
G01X9789188Y-84191D01*
G01X10591797Y-1022106D02*
G01X10591797Y-725696D01*
G01X10109197Y-1022083D02*
G01X10109197Y-725696D01*
G01X9626597Y-1022104D02*
G01X9626597Y-725696D01*
G01X10784197Y-90195D02*
G01X10784197Y-102420D01*
G01X9434198Y-397970D02*
G01X9434198Y-725696D01*
G01X9434198Y-725696D02*
G01X10782297Y-725696D01*
G01X10782297Y-725696D02*
G01X10782297Y-398087D01*
G01X9434198Y-90195D02*
G01X9434198Y-102420D01*
G01X10784197Y-90195D02*
G01X9434198Y-90195D01*
G01X183807Y-4891184D02*
G01X510007Y-4891184D01*
G01X183807Y-4151198D02*
G01X522707Y-4151198D01*
G01X833806Y-4151198D02*
G01X833806Y-4891184D01*
G01X-451201Y-4691182D02*
G01X183805Y-4691182D01*
G01X-451201Y-4351190D02*
G01X183805Y-4351190D01*
G01X-451201Y-4351190D02*
G01X-451201Y-4691182D01*
G01X183807Y-4151198D02*
G01X183807Y-4891184D01*
G01X158407Y-903384D02*
G01X484607Y-903384D01*
G01X158407Y-163398D02*
G01X497307Y-163398D01*
G01X808406Y-163398D02*
G01X808406Y-903384D01*
G01X-476601Y-703382D02*
G01X158405Y-703382D01*
G01X-476601Y-363390D02*
G01X158405Y-363390D01*
G01X-476601Y-363390D02*
G01X-476601Y-703382D01*
G01X158407Y-163398D02*
G01X158407Y-903384D01*

G04 Circle Start*
G01X3479800Y-2514613D02*
G03X3733800Y-2514613I127000J0D01*
G03X3479800Y-2514613I-127000J0D01*
G01X3006801Y-2514613D02*
G03X4206799Y-2514613I599999J0D01*
G03X3006801Y-2514613I-599999J0D01*
G04 Circle End*

M02*

