G04 Layer: TopLayer*
G04 EasyEDA Pro v2.2.38.8, 2025-04-29 09:25:40*
G04 Gerber Generator version 0.3*
G04 Scale: 100 percent, Rotated: No, Reflected: No*
G04 Dimensions in millimeters*
G04 Leading zeros omitted, absolute positions, 4 integers and 5 decimals*
%FSLAX45Y45*%
%MOMM*%
%ADD10C,0.00991*%
%ADD11C,0.127*%
%ADD12O,2.54X2.0*%
%ADD13R,1.524X1.524*%
%ADD14C,1.524*%
%ADD15C,1.8*%
%ADD16R,1.2X1.0*%
%ADD17O,1.2X1.0*%
%ADD18C,1.4*%
%ADD19C,2.49999*%
%ADD20C,2.79999*%
%ADD21C,2.2*%
%ADD22C,0.6096*%
%ADD23C,0.3556*%
G75*


G04 PolygonModel Start*
G54D10*
G01X8931732Y-3096057D02*
G01X8931732Y-2887472D01*
G54D11*
G01X10858500Y-2565400D02*
G01X10858500Y-2819400D01*
G01X10858500Y-2819400D02*
G01X9080500Y-2819400D01*
G01X9080500Y-2819400D02*
G01X9080500Y-2565400D01*

G04 Pad Start*
G54D12*
G01X5562600Y-2260280D03*
G01X5562600Y-2514280D03*
G01X5562600Y-2768280D03*
G01X4800600Y-2768280D03*
G01X4800600Y-2514280D03*
G01X4800600Y-2260280D03*
G54D13*
G01X259334Y-2902331D03*
G54D14*
G01X259334Y-2648331D03*
G01X259334Y-2394331D03*
G01X259334Y-2140331D03*
G01X9715490Y-2692410D03*
G01X9969490Y-2692410D03*
G01X10223490Y-2692410D03*
G01X10477490Y-2692410D03*
G01X10731500Y-2692400D03*
G01X10731490Y-4216410D03*
G01X10477490Y-4216410D03*
G01X10223500Y-4216410D03*
G01X9969490Y-4216410D03*
G01X9461490Y-4216410D03*
G01X9207490Y-4216410D03*
G01X9715490Y-4216410D03*
G01X10071090Y-3066806D03*
G01X10259888Y-3066806D03*
G01X9207490Y-2692410D03*
G01X9461490Y-2692410D03*
G54D15*
G01X3606800Y-2134603D03*
G01X3606800Y-2894597D03*
G54D16*
G01X4597400Y-3860800D03*
G54D17*
G01X4597400Y-3733800D03*
G01X4597400Y-3606800D03*
G54D18*
G01X5537200Y-3361207D03*
G01X5537200Y-4411193D03*
G01X4097807Y-4394200D03*
G01X5147793Y-4394200D03*
G01X3581400Y-4396207D03*
G01X3581400Y-3376193D03*
G54D19*
G01X9629188Y-1172195D03*
G01X10109197Y-1172195D03*
G01X10589181Y-1172195D03*
G01X9444203Y-250213D03*
G01X10774197Y-250205D03*
G54D20*
G01X8749309Y-914425D03*
G01X7989392Y-664388D03*
G01X7989291Y-1164412D03*
G01X2426691Y-914375D03*
G01X3186608Y-1164412D03*
G01X3186709Y-664388D03*
G54D21*
G01X683793Y-4171201D03*
G01X683793Y-4871199D03*
G54D15*
G01X433807Y-4746180D03*
G01X433807Y-4296194D03*
G54D21*
G01X658393Y-183401D03*
G01X658393Y-883399D03*
G54D15*
G01X408407Y-758380D03*
G01X408407Y-308394D03*
G04 Pad End*

G04 Via Start*
G54D22*
G01X3545840Y-2760447D03*
G01X5537200Y-3144200D03*
G01X5537200Y-3926520D03*
G04 Via End*

G04 Track Start*
G54D23*
G01X4800600Y-2514280D02*
G01X5511800Y-3225480D01*
G01X8724560Y-3225480D01*
G01X9715490Y-4216410D01*
G01X5562600Y-2768280D02*
G01X8521360Y-2768280D01*
G01X9969490Y-4216410D01*
G01X4800600Y-2768280D02*
G01X4800600Y-2803840D01*
G01X6070930Y-4074170D01*
G01X9319250Y-4074170D01*
G01X9461490Y-4216410D01*
G01X4597400Y-3733800D02*
G01X4632960Y-3733800D01*
G01X5130800Y-4231640D01*
G01X5130800Y-4377207D01*
G01X5147793Y-4394200D01*
G01X10477490Y-2692410D02*
G01X8877290Y-1092210D01*
G01X8663930Y-1092210D01*
G01X7917170Y-345450D01*
G01X445463Y-345450D01*
G01X408407Y-308394D01*
G01X3545840Y-2760447D02*
G01X3545840Y-2195563D01*
G01X3606800Y-2134603D01*
G01X5562600Y-2260280D02*
G01X4815840Y-2260280D01*
G01X4602480Y-2473640D01*
G01X4602480Y-3469320D02*
G01X4495800Y-3576000D01*
G01X4495800Y-3789360D01*
G01X4566920Y-3860480D01*
G01X4597400Y-3860800D01*
G01X4602480Y-2900360D02*
G01X4460240Y-3042600D01*
G01X399603Y-3042600D01*
G01X259334Y-2902331D01*
G01X5562600Y-2260280D02*
G01X8442960Y-2260280D01*
G01X10398760Y-4216080D01*
G01X10477160Y-4216080D01*
G01X5562600Y-2514280D02*
G01X5394960Y-2681920D01*
G01X5394960Y-3001960D01*
G01X5537200Y-3144200D01*
G01X5537200Y-4211000D02*
G01X5679440Y-4353240D01*
G01X10086670Y-4353240D01*
G01X10223500Y-4216410D01*
G01X5537200Y-4411193D02*
G01X5252720Y-4695673D01*
G01X665480Y-4695673D01*
G01X629920Y-4731233D01*
G01X452120Y-4731233D01*
G01X433807Y-4746180D01*
G01X4602480Y-2473640D02*
G01X4602480Y-2900360D01*
G01X4602480Y-3469320D01*
G01X5537200Y-3926520D02*
G01X5537200Y-4211000D01*
G01X5537200Y-4411193D01*
G01X452120Y-4731233D02*
G01X101600Y-4380713D01*
G01X101600Y-2806065D01*
G01X259334Y-2648331D01*
G01X457200Y-2450465D01*
G01X457200Y-807174D01*
G01X408407Y-758380D01*
G04 Track End*

M02*

